{"title":"Two and a Half Men - S09E10 - 720p WEB-DL H.264 {$H@uN}","uid":6838784,"size":210935663,"categoryP":"video","categoryS":"hd___tv_shows","magnet":"?xt=urn:btih:6729c75f538cced4c7369484171ca11e1ab6662b&amp;dn=Two+and+a+Half+Men+-+S09E10+-+720p+WEB-DL+H.264+%7B%24H%40uN%7D&amp;tr=udp%3A%2F%2Ftracker.openbittorrent.com%3A80&amp;tr=udp%3A%2F%2Fopen.demonii.com%3A1337&amp;tr=udp%3A%2F%2Ftracker.coppersurfer.tk%3A6969&amp;tr=udp%3A%2F%2Fexodus.desync.com%3A6969","seeders":1,"leechers":4,"uploader":"ShaunGP","files":-1,"time":1322095625,"description":"&quot;WEB-DL means straight from iTunes where they release &quot;Bluray&quot; quality episodes.\n Such episodes are without any Logo and Caps.&quot;\n\nTwo and a Half Men - S09E10 - A Fishbowl Full of Glass Eyes - 720p WEB-DL H.264 {$H@uN}\n\nGeneral:\n\nComplete name                  : Two and a Half Men - S09E10 - A Fishbowl Full of Glass Eyes - 720p WEB-DL H.264 {$H@uN}.mkv\nOriginal air date              : November 21 2011\nGenre                          : Sitcom\nLanguage                       : English\nEncoder                        : $H@uN\nFile format                    : Matroska\nFile size                      : 201 MiB\nDuration                       : 21mn 37s\nOverall bit rate               : 1 301 Kbps\n\n\nVideo:\n\nFormat                         : AVC\nDuration                       : 21mn 37s\nBit rate                       : 1 200 Kbps\nWidth                          : 1 280 pixels\nHeight                         : 720 pixels\nDisplay aspect ratio           : 16:9\nFrame rate mode                : Variable\nFrame rate                     : 23.976 fps\nColor space                    : YUV\nChroma subsampling             : 4:2:0\nBit depth                      : 8 bits\nScan type                      : Progressive\nBits/(Pixel*Frame)             : 0.054\nStream size                    : 182 MiB (91%)\nWriting library                : x264 core 112\nLanguage                       : English\nSubtitles                      : Seperate .srt file included\n\n\nAudio:\n\nFormat                         : AC-3\nMode extension                 : CM (complete main)\nCodec ID                       : A_AC3\nDuration                       : 21mn 37s\nBit rate mode                  : Constant\nBit rate                       : 96 Kbps\nChannel(s)                     : 2 channels\nChannel positions              : Front: L R\nSampling rate                  : 48.0 KHz\nBit depth                      : 16 bits\nCompression mode               : Lossy\nStream size                    : 14.8 MiB (7%)\nLanguage                       : English\n\nScreen Shots:\n &lt;a href=&quot;\nhttp://imagestorage.org/images/38506612592749178432.jpg&quot; rel=&quot;nofollow&quot; target=&quot;_NEW&quot;&gt;\nhttp://imagestorage.org/images/38506612592749178432.jpg&lt;/a&gt;\n &lt;a href=&quot;\nhttp://imagestorage.org/images/80732033274947298326.jpg&quot; rel=&quot;nofollow&quot; target=&quot;_NEW&quot;&gt;\nhttp://imagestorage.org/images/80732033274947298326.jpg&lt;/a&gt;\n &lt;a href=&quot;\nhttp://imagestorage.org/images/69794498690876017092.jpg&quot; rel=&quot;nofollow&quot; target=&quot;_NEW&quot;&gt;\nhttp://imagestorage.org/images/69794498690876017092.jpg&lt;/a&gt;\n\n\nEncoder's Notes:\n\nDo Provide Feedback.\nKeep in Mind, you are charged nothing for Downloading a TORRENT,\nso its your duty to SEED n keep the torrent alive for as long as possible.\nEnjoy..!!! Keep Seeding till 1:1 ratio...","torrent":{"xt":"urn:btih:6729c75f538cced4c7369484171ca11e1ab6662b","amp;dn":"Two+and+a+Half+Men+-+S09E10+-+720p+WEB-DL+H.264+%7B%24H%40uN%7D","amp;tr":["udp%3A%2F%2Ftracker.openbittorrent.com%3A80","udp%3A%2F%2Fopen.demonii.com%3A1337","udp%3A%2F%2Ftracker.coppersurfer.tk%3A6969","udp%3A%2F%2Fexodus.desync.com%3A6969"],"infoHash":"6729c75f538cced4c7369484171ca11e1ab6662b","infoHashBuffer":{"type":"Buffer","data":[103,41,199,95,83,140,206,212,199,54,148,132,23,28,161,30,26,182,102,43]},"announce":[],"urlList":[]}}